<svg width="1024" height="1024" viewBox="0 0 1024 1024" xmlns="http://www.w3.org/2000/svg">
  <defs>
    <linearGradient id="iconGrad" x1="0%" y1="0%" x2="100%" y2="100%">
      <stop offset="0%" style="stop-color:#a78bfa;stop-opacity:1" />
      <stop offset="100%" style="stop-color:#7c3aed;stop-opacity:1" />
    </linearGradient>
  </defs>
  
  <!-- Main Speech Bubble -->
  <path d="M 212 212 Q 212 162 252 162 L 772 162 Q 812 162 812 212 L 812 632 Q 812 682 772 682 L 492 682 L 312 862 L 312 682 L 252 682 Q 212 682 212 632 Z" 
        fill="url(#iconGrad)"/>
  
  <!-- AI Brain Circuit Pattern -->
  <circle cx="412" cy="347" r="42" fill="white"/>
  <circle cx="612" cy="347" r="42" fill="white"/>
  <circle cx="512" cy="547" r="42" fill="white"/>
  
  <line x1="412" y1="347" x2="512" y2="547" stroke="white" stroke-width="12" stroke-linecap="round"/>
  <line x1="612" y1="347" x2="512" y2="547" stroke="white" stroke-width="12" stroke-linecap="round"/>
  <line x1="412" y1="347" x2="612" y2="347" stroke="white" stroke-width="12" stroke-linecap="round"/>
  
  <!-- Small nodes on connections -->
  <circle cx="462" cy="447" r="16" fill="white"/>
  <circle cx="562" cy="447" r="16" fill="white"/>
  
  <!-- Viral spark -->
  <path d="M 742 112 L 762 152 L 802 172 L 762 192 L 742 232 L 722 192 L 682 172 L 722 152 Z" 
        fill="#f97316"/>
</svg>